<?xml version="1.0" standalone="no"?>
<!DOCTYPE svg PUBLIC "-//W3C//DTD SVG 20010904//EN"
 "http://www.w3.org/TR/2001/REC-SVG-20010904/DTD/svg10.dtd">
<svg version="1.0" xmlns="http://www.w3.org/2000/svg"
 width="260.000000pt" height="260.000000pt" viewBox="0 0 260.000000 260.000000"
 preserveAspectRatio="xMidYMid meet">
<metadata>
Created by potrace 1.11, written by Peter Selinger 2001-2013
</metadata>
<g transform="translate(0.000000,260.000000) scale(0.100000,-0.100000)"
fill="#000000" stroke="none">
<path d="M1095 2584 c-552 -84 -998 -534 -1079 -1085 -94 -637 271 -1232 877
-1434 678 -226 1415 146 1642 828 226 678 -146 1415 -828 1642 -185 61 -413
80 -612 49z m-25 -789 l126 -125 412 0 413 0 15 -37 c13 -30 14 -44 5 -75 -14
-45 -35 -58 -95 -58 l-46 0 0 -95 0 -95 -130 0 -130 0 0 95 0 95 -223 0 -222
0 -230 -230 -230 -230 78 -77 77 -78 80 80 80 79 -57 58 -57 58 54 55 54 55
76 -75 75 -75 406 0 c374 0 407 -1 421 -17 23 -26 29 -67 17 -102 -14 -39 -35
-51 -93 -51 l-46 0 0 -95 0 -95 -130 0 -130 0 0 95 0 95 -222 0 -221 0 -121
-118 c-180 -176 -191 -176 -390 26 l-129 131 5 56 5 57 246 246 247 247 -80
80 -80 80 -82 -83 -83 -82 58 -58 57 -58 -58 -57 -58 -57 -82 83 c-87 87 -103
121 -87 184 7 30 209 242 260 274 18 11 48 19 74 19 43 0 47 -3 171 -125z"/>
</g>
</svg>
