<?xml version="1.0" standalone="no"?>
<!DOCTYPE svg PUBLIC "-//W3C//DTD SVG 20010904//EN"
 "http://www.w3.org/TR/2001/REC-SVG-20010904/DTD/svg10.dtd">
<svg version="1.0" xmlns="http://www.w3.org/2000/svg"
 width="200.000000pt" height="200.000000pt" viewBox="0 0 200.000000 200.000000"
 preserveAspectRatio="xMidYMid meet">
<metadata>
Created by potrace 1.11, written by Peter Selinger 2001-2013
</metadata>
<g transform="translate(0.000000,200.000000) scale(0.100000,-0.100000)"
fill="#000000" stroke="none">
<path d="M834 1762 c-10 -2 -98 -85 -195 -185 l-177 -182 69 -53 69 -53 0
-130 c0 -145 -8 -132 85 -129 28 1 52 4 54 6 3 2 4 47 3 99 l-1 94 41 31 42
30 183 0 c180 0 184 0 222 -26 22 -14 41 -31 43 -37 2 -7 4 -54 3 -104 l0 -93
37 -1 c21 0 53 -1 71 -2 l32 -1 1 110 c1 60 2 120 3 134 1 16 13 33 34 48 17
12 47 35 66 51 l35 29 -86 88 c-48 49 -127 131 -176 183 l-89 94 -175 1 c-96
1 -183 0 -194 -2z"/>
<path d="M840 1172 l-35 -3 0 -179 0 -180 201 0 202 0 0 180 1 180 -57 1 c-31
0 -106 1 -167 2 -60 1 -126 1 -145 -1z"/>
<path d="M33 1162 c-13 -2 -24 -8 -24 -13 -6 -39 -4 -297 2 -309 6 -13 42 -15
241 -15 l233 0 3 168 c2 128 -1 167 -10 168 -41 3 -427 3 -445 1z"/>
<path d="M1550 1162 l-25 -3 2 -152 c1 -84 2 -159 2 -167 1 -13 33 -15 234
-15 l232 0 3 168 c2 154 1 167 -15 168 -53 3 -412 4 -433 1z"/>
<path d="M599 938 c-1 -7 -2 -67 -3 -133 l-1 -119 -67 -52 -67 -51 62 -66 c34
-36 112 -117 173 -181 l112 -116 199 0 200 0 78 83 c43 45 121 126 173 180 52
54 91 102 86 106 -5 4 -36 28 -69 53 l-61 46 1 131 1 131 -73 0 -73 0 0 -104
0 -103 -39 -27 c-39 -27 -39 -27 -225 -27 l-186 0 -40 28 -40 28 0 103 0 102
-70 0 c-49 0 -70 -4 -71 -12z"/>
</g>
</svg>
