<?xml version="1.0" encoding="utf-8"?>
<!-- Generator: Adobe Illustrator 20.0.0, SVG Export Plug-In . SVG Version: 6.00 Build 0)  -->
<svg version="1.1" id="icon-github-sign" xmlns="http://www.w3.org/2000/svg" xmlns:xlink="http://www.w3.org/1999/xlink" x="0px"
	 y="0px" viewBox="0 0 51.1 104" style="enable-background:new 0 0 51.1 104;" xml:space="preserve">
<style type="text/css">
	.st0{fill:#FFFFFF;}
	.st1{fill:#A6AFB6;}
</style>
<title>github-sign</title>
<path class="st0" d="M18,40.2c-0.3,0.1-0.5,0.2-0.5,0.5s0.2,0.3,0.6,0.3c0.3-0.1,0.5-0.2,0.5-0.5C18.6,40.3,18.4,40.2,18,40.2z"/>
<path class="st0" d="M16.2,40.5c-0.3,0-0.5,0.1-0.5,0.4c0,0.3,0.2,0.4,0.6,0.4c0.3,0,0.5-0.1,0.5-0.4C16.7,40.5,16.5,40.4,16.2,40.5
	L16.2,40.5z"/>
<path class="st0" d="M13.6,40.4c-0.1,0.2,0.1,0.4,0.4,0.5c0.3,0.1,0.5,0.1,0.6-0.2c0.1-0.2-0.1-0.4-0.4-0.5
	C13.9,40.1,13.7,40.1,13.6,40.4L13.6,40.4z"/>
<path class="st0" d="M47.2,2.8C45.4,1,43.2,0,40.6,0H9.4C6.8,0,4.6,0.9,2.8,2.8S0,6.8,0,9.4v31.2c0,2.6,0.9,4.8,2.8,6.6
	C4.6,49,6.8,50,9.4,50h7.3c0.5,0,0.8,0,1.1,0c0.2,0,0.5-0.2,0.7-0.4s0.4-0.6,0.4-1.1c0-0.1,0-0.8,0-2.2s0-2.5,0-3.4L18,43
	c-0.5,0.1-1.1,0.1-1.8,0.1c-0.7,0-1.5-0.1-2.3-0.2c-0.8-0.1-1.5-0.5-2.2-1s-1.1-1.2-1.4-2L10,39.2c-0.2-0.5-0.6-1.1-1-1.7
	c-0.5-0.6-0.9-1-1.4-1.2l-0.2-0.2C7.2,36,7.1,35.9,7,35.7s-0.2-0.3-0.3-0.5c-0.1-0.2,0-0.3,0.2-0.4c0.2-0.1,0.5-0.1,0.9-0.1l0.7,0.1
	c0.4,0.1,1,0.3,1.6,0.8c0.6,0.4,1.2,1,1.6,1.7c0.5,0.9,1.1,1.6,1.8,2c0.7,0.5,1.4,0.7,2.1,0.7c0.7,0,1.3-0.1,1.9-0.2
	c0.5-0.1,1-0.3,1.5-0.5c0.2-1.5,0.7-2.6,1.6-3.4c-1.2-0.1-2.3-0.3-3.3-0.6s-2-0.7-3.1-1.3s-1.9-1.3-2.6-2.2c-0.7-0.9-1.3-2-1.7-3.4
	s-0.7-3-0.7-4.9c0-2.6,0.9-4.9,2.6-6.7c-0.8-2-0.7-4.2,0.2-6.6c0.6-0.2,1.6,0,2.8,0.4s2.1,0.9,2.7,1.3c0.6,0.3,1,0.6,1.4,0.9
	c2-0.6,4.1-0.8,6.2-0.8s4.2,0.3,6.2,0.8l1.2-0.8c0.8-0.5,1.8-1,3-1.4s2-0.6,2.6-0.4c1,2.5,1.1,4.7,0.3,6.6c1.7,1.8,2.6,4.1,2.6,6.7
	c0,1.8-0.2,3.5-0.7,4.9s-1,2.6-1.7,3.4C37.9,32.7,37,33.4,36,34s-2.1,1-3.1,1.3s-2.1,0.5-3.3,0.6c1.1,1,1.7,2.5,1.7,4.6v7.8
	c0,0.4,0.1,0.7,0.2,0.9s0.3,0.4,0.5,0.5s0.4,0.1,0.6,0.2c0.2,0,0.5,0,0.8,0h7.3c2.6,0,4.8-0.9,6.6-2.8s2.8-4,2.8-6.6V9.4
	C50,6.8,49.1,4.6,47.2,2.8L47.2,2.8z"/>
<path class="st0" d="M9.9,36.4c-0.2,0.1-0.1,0.3,0.1,0.5c0.2,0.2,0.4,0.2,0.5,0.1c0.2-0.1,0.1-0.3-0.1-0.5
	C10.2,36.3,10,36.3,9.9,36.4z"/>
<path class="st0" d="M8.8,35.6c-0.1,0.2,0,0.3,0.2,0.4c0.2,0.1,0.3,0.1,0.4-0.1c0.1-0.2,0-0.3-0.2-0.4C9,35.5,8.9,35.5,8.8,35.6
	L8.8,35.6z"/>
<path class="st0" d="M10.9,37.7c-0.2,0.1-0.2,0.3,0,0.6s0.4,0.4,0.6,0.2c0.2-0.2,0.2-0.4,0-0.6C11.3,37.6,11.1,37.5,10.9,37.7z"/>
<path class="st0" d="M12,39.1c-0.2,0.2-0.2,0.4,0.1,0.6c0.3,0.3,0.5,0.3,0.7,0.1s0.1-0.4-0.1-0.6C12.4,39,12.2,38.9,12,39.1L12,39.1
	z"/>
<g>
	<path class="st1" d="M18,94.2c-0.3,0.1-0.5,0.2-0.5,0.5c0,0.3,0.2,0.3,0.6,0.3c0.3-0.1,0.5-0.2,0.5-0.5
		C18.6,94.3,18.4,94.2,18,94.2z"/>
	<path class="st1" d="M16.2,94.5c-0.3,0-0.5,0.1-0.5,0.4c0,0.3,0.2,0.4,0.6,0.4c0.3,0,0.5-0.1,0.5-0.4
		C16.7,94.5,16.5,94.4,16.2,94.5L16.2,94.5z"/>
	<path class="st1" d="M13.6,94.4c-0.1,0.2,0.1,0.4,0.4,0.5c0.3,0.1,0.5,0.1,0.6-0.2c0.1-0.2-0.1-0.4-0.4-0.5
		C13.9,94.1,13.7,94.1,13.6,94.4L13.6,94.4z"/>
	<path class="st1" d="M47.2,56.8c-1.8-1.8-4-2.8-6.6-2.8H9.4c-2.6,0-4.8,0.9-6.6,2.8C1,58.7,0,60.8,0,63.4v31.2
		c0,2.6,0.9,4.8,2.8,6.6c1.8,1.8,4,2.8,6.6,2.8h7.3c0.5,0,0.8,0,1.1,0c0.2,0,0.5-0.2,0.7-0.4c0.2-0.2,0.4-0.6,0.4-1.1
		c0-0.1,0-0.8,0-2.2s0-2.5,0-3.4L18,97c-0.5,0.1-1.1,0.1-1.8,0.1c-0.7,0-1.5-0.1-2.3-0.2c-0.8-0.1-1.5-0.5-2.2-1s-1.1-1.2-1.4-2
		L10,93.2c-0.2-0.5-0.6-1.1-1-1.7c-0.5-0.6-0.9-1-1.4-1.2l-0.2-0.2C7.2,90,7.1,89.9,7,89.7c-0.1-0.2-0.2-0.3-0.3-0.5
		c-0.1-0.2,0-0.3,0.2-0.4s0.5-0.1,0.9-0.1l0.7,0.1c0.4,0.1,1,0.3,1.6,0.8c0.6,0.4,1.2,1,1.6,1.7c0.5,0.9,1.1,1.6,1.8,2
		c0.7,0.5,1.4,0.7,2.1,0.7c0.7,0,1.3-0.1,1.9-0.2c0.5-0.1,1-0.3,1.5-0.5c0.2-1.5,0.7-2.6,1.6-3.4c-1.2-0.1-2.3-0.3-3.3-0.6
		c-1-0.3-2-0.7-3.1-1.3s-1.9-1.3-2.6-2.2c-0.7-0.9-1.3-2-1.7-3.4s-0.7-3-0.7-4.9c0-2.6,0.9-4.9,2.6-6.7c-0.8-2-0.7-4.2,0.2-6.6
		c0.6-0.2,1.6,0,2.8,0.4s2.1,0.9,2.7,1.3c0.6,0.3,1,0.6,1.4,0.9c2-0.6,4.1-0.8,6.2-0.8s4.2,0.3,6.2,0.8l1.2-0.8c0.8-0.5,1.8-1,3-1.4
		s2-0.6,2.6-0.4c1,2.5,1.1,4.7,0.3,6.6c1.7,1.8,2.6,4.1,2.6,6.7c0,1.8-0.2,3.5-0.7,4.9s-1,2.6-1.7,3.4C37.9,86.7,37,87.4,36,88
		c-1,0.6-2.1,1-3.1,1.3c-1,0.3-2.1,0.5-3.3,0.6c1.1,1,1.7,2.5,1.7,4.6v7.8c0,0.4,0.1,0.7,0.2,0.9c0.1,0.2,0.3,0.4,0.5,0.5
		s0.4,0.1,0.6,0.2c0.2,0,0.5,0,0.8,0h7.3c2.6,0,4.8-0.9,6.6-2.8c1.8-1.9,2.8-4,2.8-6.6V63.4C50,60.8,49.1,58.6,47.2,56.8L47.2,56.8z
		"/>
	<path class="st1" d="M9.9,90.4c-0.2,0.1-0.1,0.3,0.1,0.5c0.2,0.2,0.4,0.2,0.5,0.1c0.2-0.1,0.1-0.3-0.1-0.5
		C10.2,90.3,10,90.3,9.9,90.4z"/>
	<path class="st1" d="M8.8,89.6c-0.1,0.2,0,0.3,0.2,0.4c0.2,0.1,0.3,0.1,0.4-0.1c0.1-0.2,0-0.3-0.2-0.4C9,89.5,8.9,89.5,8.8,89.6
		L8.8,89.6z"/>
	<path class="st1" d="M10.9,91.7c-0.2,0.1-0.2,0.3,0,0.6c0.2,0.3,0.4,0.4,0.6,0.2c0.2-0.2,0.2-0.4,0-0.6
		C11.3,91.6,11.1,91.5,10.9,91.7z"/>
	<path class="st1" d="M12,93.1c-0.2,0.2-0.2,0.4,0.1,0.6c0.3,0.3,0.5,0.3,0.7,0.1c0.2-0.2,0.1-0.4-0.1-0.6
		C12.4,93,12.2,92.9,12,93.1L12,93.1z"/>
</g>
</svg>
