<?xml version="1.0" encoding="utf-8"?>
<!-- Generator: Adobe Illustrator 20.0.0, SVG Export Plug-In . SVG Version: 6.00 Build 0)  -->
<svg version="1.1" id="Capa_1" xmlns="http://www.w3.org/2000/svg" xmlns:xlink="http://www.w3.org/1999/xlink" x="0px" y="0px"
	 viewBox="0 0 34.9 35" style="enable-background:new 0 0 34.9 35;" xml:space="preserve">
<style type="text/css">
	.st0{fill:#FF9933;}
</style>
<title>ico_sites</title>
<path class="st0" d="M33,2c-1.3-1.3-2.9-2-4.6-2H6.6C4.8,0,3.1,0.7,2,2C0.7,3.2,0,4.9,0,6.6v21.8c0,1.7,0.7,3.4,2,4.6
	c1.3,1.3,2.8,2,4.6,2h5.9c0.1,0,0.4-0.1,0.4-0.3c0.1-0.3,0.3-0.6,0.1-0.7v-3.9h-0.6c-0.4,0-0.8,0-1.3,0c-0.6,0-1.1,0-1.5-0.1
	c-0.6-0.1-1.1-0.3-1.5-0.7c-0.4-0.4-0.8-0.8-1-1.4L7,27.4c-0.1-0.4-0.4-0.8-0.7-1.1c-0.3-0.6-0.7-0.8-1.1-1.1L5,25.1
	c-0.1,0-0.3-0.1-0.3-0.3c0-0.1-0.1-0.1-0.1-0.3c0-0.1,0-0.1,0.1-0.3c0.1,0,0.4,0,0.6,0h0.4c0.4,0.1,0.8,0.3,1.1,0.6
	c0.4,0.3,0.8,0.7,1.1,1.1c0.3,0.6,0.7,1.1,1.3,1.4c0.4,0.3,1,0.4,1.4,0.4s0.8,0,1.3-0.1c0.4-0.1,0.7-0.1,1-0.3
	c0-0.8,0.4-1.8,1.1-2.4c-0.8,0-1.5-0.1-2.2-0.4c-0.7-0.3-1.5-0.6-2.1-0.8C9,23.2,8.4,22.8,8,22.1c-0.6-0.7-1-1.5-1.1-2.4
	c-0.3-1.1-0.6-2.4-0.4-3.5c0-1.7,0.6-3.4,1.7-4.6C7.6,10.1,7.6,8.5,8.3,7c0.7-0.1,1.4,0,2,0.3c0.7,0.3,1.3,0.6,1.8,0.8
	c0.3,0.1,0.7,0.4,1,0.6c1.4-0.4,2.8-0.6,4.3-0.6c1.4,0,2.9,0.1,4.3,0.6l0.8-0.6c0.7-0.4,1.4-0.7,2.1-1c0.6-0.3,1.1-0.4,1.7-0.3
	c0.7,1.4,0.7,3.1,0.1,4.6c1.1,1.3,1.8,2.9,1.7,4.6c0,1.1-0.1,2.4-0.4,3.5c-0.3,0.8-0.7,1.7-1.1,2.4c-0.4,0.6-1.1,1.1-1.7,1.5
	c-0.7,0.4-1.4,0.7-2.1,0.8c-0.7,0.3-1.5,0.4-2.2,0.4c1,0.8,1.4,2.1,1.3,3.4v5.5c0,0.3,0,0.4,0.1,0.6c0.1,0.1,0.1,0.3,0.3,0.3
	c0.1,0,0.3,0,0.4,0.1h5.6c1.7,0,3.4-0.7,4.6-2c1.3-1.3,2-2.9,2-4.6V6.6C35,4.9,34.3,3.2,33,2z"/>
</svg>
