<?xml version="1.0" encoding="utf-8"?>
<!-- Generator: Adobe Illustrator 20.0.0, SVG Export Plug-In . SVG Version: 6.00 Build 0)  -->
<svg version="1.1" id="Capa_1" xmlns="http://www.w3.org/2000/svg" xmlns:xlink="http://www.w3.org/1999/xlink" x="0px" y="0px"
	 viewBox="0 0 35 35" style="enable-background:new 0 0 35 35;" xml:space="preserve">
<style type="text/css">
	.st0{fill:#FF9933;}
	.st1{fill:#DD830C;}
	.st2{fill:#FFFFFF;}
</style>
<title>ico_sites</title>
<path class="st0" d="M27,35H8c-4.4,0-8-3.6-8-8V8c0-4.4,3.6-8,8-8h19c4.4,0,8,3.6,8,8v19C35,31.4,31.4,35,27,35z"/>
<g>
	<path class="st1" d="M30.1,4.4c-6.5,0.4-12.4,3.4-16.5,8.4c-0.4,0.5-0.7,1-1.1,1.4c-0.2,1.1-0.3,2-0.4,3.1
		c-0.2-0.1-0.3-0.3-0.4-0.5c-0.1-0.3-0.2-0.6-0.3-1c-3.6,5.9-2.6,9-2.6,9c-0.3,0.7-0.8,1.1-1.6,2.8c-0.4,1-0.7,2-0.7,3.2
		c0,0.3,0.1,0.3,0.2,0c0,0,0.8-1.6,1.5-2.6c0.4-0.6,1.7-2.3,1.7-2.3c1.6,0,3.1-0.2,4.7-0.6c-0.2-0.1-1-0.3-1.4-0.5
		c-0.3-0.1-0.5-0.3-0.7-0.5l9-2.1c1.3-0.7,2.4-1.7,3.3-2.9c4.8-5.6,5.9-14.2,5.9-14.2C30.5,4.6,30.3,4.4,30.1,4.4z M21.1,13.3
		c0,0-4.2,3.7-6.3,5.7c-1.8,2-3.5,4.2-4.9,6.7l-1.1-1.1c1.1-2,2.3-3.9,3.8-5.6c2.3-2.5,5.1-4.5,8.3-6C21.5,12.7,21.6,12.8,21.1,13.3
		z"/>
	<path class="st2" d="M28.2,4.2c-6.5,0.4-12.4,3.4-16.5,8.4c-0.4,0.5-0.7,1-1.1,1.4c-0.2,1.1-0.3,2-0.4,3.1
		c-0.2-0.1-0.3-0.3-0.4-0.5c-0.1-0.3-0.2-0.6-0.3-1c-3.6,5.9-2.6,9-2.6,9c-0.3,0.7-0.8,1.1-1.6,2.8c-0.4,1-0.7,2-0.7,3.2
		c0,0.3,0.1,0.3,0.2,0c0,0,0.8-1.6,1.5-2.6c0.4-0.6,1.7-2.3,1.7-2.3c1.6,0,3.1-0.2,4.7-0.6c-0.2-0.1-1-0.3-1.4-0.5
		c-0.3-0.1-0.5-0.3-0.7-0.5l9-2.1c1.3-0.7,2.4-1.7,3.3-2.9c4.8-5.6,5.9-14.2,5.9-14.2C28.6,4.4,28.4,4.2,28.2,4.2z M19.2,13.2
		c0,0-4.2,3.7-6.3,5.7c-1.8,2-3.5,4.2-4.9,6.7l-1.1-1.1c1.1-2,2.3-3.9,3.8-5.6c2.3-2.5,5.1-4.5,8.3-6C19.6,12.5,19.7,12.6,19.2,13.2
		z"/>
</g>
</svg>
