<svg xmlns="http://www.w3.org/2000/svg" width="109.53" height="35" viewBox="0 0 109.53 35"><title>ico_sites</title><circle cx="54.62" cy="17.5" r="17.5" fill="#5f7fa7"/><path d="M63.37,7.5a17.63,17.63,0,0,0-12.5,6.28c-.29.36-.55.71-.8,1.06a15.67,15.67,0,0,0-.32,2.32,1.4,1.4,0,0,1-.29-.41,3.52,3.52,0,0,1-.21-.7c-2.75,4.48-2,6.83-2,6.83-.21.55-.65.83-1.23,2.05a5.56,5.56,0,0,0-.54,2.38c0,.23.08.25.18,0,0,0,.62-1.19,1.13-2,.33-.51,1.29-1.72,1.29-1.72a12.39,12.39,0,0,0,3.48-.45c-.16-.07-.69-.21-1.07-.4a1.93,1.93,0,0,1-.56-.42l6.77-1.56a9.52,9.52,0,0,0,2.51-2.12c3.59-4.31,4.48-10.83,4.48-10.83A.32.32,0,0,0,63.37,7.5Zm-6.8,6.81s-3.18,2.79-4.76,4.3a31.88,31.88,0,0,0-3.7,5l-.82-.77a20,20,0,0,1,2.9-4.26,19.17,19.17,0,0,1,6.23-4.53C56.93,13.83,57,13.94,56.57,14.31Z" fill="#e5e5e5"/><circle cx="92.03" cy="17.5" r="17.5" fill="#5f7fa7"/><path d="M89.41,23s-.76.44.54.59a11.44,11.44,0,0,0,4.14-.18,7.21,7.21,0,0,0,1.1.54c-3.92,1.68-8.86-.1-5.79-1" fill="#e5e5e5"/><path d="M88.93,20.78s-.86.63.45.77a16.16,16.16,0,0,0,5.34-.26,2.37,2.37,0,0,0,.82.5c-4.73,1.38-10,.11-6.62-1" fill="#e5e5e5"/><path d="M93,17.06a1.47,1.47,0,0,1-.25,2.11s2.45-1.26,1.32-2.85-1.86-2.21,2.51-4.74c0,0-6.85,1.71-3.58,5.48" fill="#e5e5e5"/><path d="M98.14,24.59s.57.47-.62.83c-2.26.68-9.41.89-11.39,0-.71-.31.62-.74,1-.83a2.71,2.71,0,0,1,.69-.08c-.79-.56-5.13,1.1-2.2,1.57,8,1.29,14.55-.58,12.48-1.52" fill="#e5e5e5"/><path d="M89.78,18.51s-3.63.86-1.29,1.18a27.3,27.3,0,0,0,4.81-.05c1.5-.13,3-.4,3-.4a6.38,6.38,0,0,0-.91.49c-3.69,1-10.82.52-8.77-.47a6.88,6.88,0,0,1,3.15-.74" fill="#e5e5e5"/><path d="M96.3,22.15c3.75-1.95,2-3.82.81-3.57a2.81,2.81,0,0,0-.43.12.68.68,0,0,1,.32-.25c2.4-.84,4.24,2.48-.77,3.8a.33.33,0,0,0,.08-.1" fill="#e5e5e5"/><path d="M94,7.5s2.08,2.08-2,5.28c-3.25,2.56-.74,4,0,5.7-1.9-1.71-3.29-3.22-2.35-4.62C91.08,11.8,94.87,10.8,94,7.5" fill="#e5e5e5"/><path d="M90.15,27.44c3.6.23,9.13-.13,9.26-1.83,0,0-.25.65-3,1.16a29.61,29.61,0,0,1-9.11.14s.46.38,2.83.53" fill="#e5e5e5"/><circle cx="17.5" cy="17.5" r="17.5" fill="#5f7fa7"/><path d="M26.36,8.62A3.63,3.63,0,0,0,23.72,7.5H11.24A3.48,3.48,0,0,0,8.6,8.62a3.69,3.69,0,0,0-1.12,2.64V23.74A3.48,3.48,0,0,0,8.6,26.38a3.63,3.63,0,0,0,2.64,1.12H14.6a.51.51,0,0,0,.28-.16A.64.64,0,0,0,15,26.9V24.66l-.36,0a3.89,3.89,0,0,1-.72,0,7.81,7.81,0,0,1-.92-.08,2,2,0,0,1-.88-.4,1.63,1.63,0,0,1-.56-.8l-.12-.28a4.25,4.25,0,0,0-.4-.68,1.5,1.5,0,0,0-.56-.48l-.08-.08a.31.31,0,0,1-.16-.16c0-.08-.08-.12-.12-.2s0-.12.08-.16a.89.89,0,0,1,.36,0l.28,0a1.58,1.58,0,0,1,.64.32,2.09,2.09,0,0,1,.64.68,2,2,0,0,0,.72.8,1.41,1.41,0,0,0,.84.28,4.43,4.43,0,0,0,.76-.08,3.52,3.52,0,0,0,.6-.2,2.08,2.08,0,0,1,.64-1.36,6.46,6.46,0,0,1-1.32-.24,6.34,6.34,0,0,1-1.24-.52,3.21,3.21,0,0,1-1-.88,3.94,3.94,0,0,1-.68-1.36,7,7,0,0,1-.28-2,3.81,3.81,0,0,1,1-2.68,3.56,3.56,0,0,1,.08-2.64,2.07,2.07,0,0,1,1.12.16,4.54,4.54,0,0,1,1.08.52,3.4,3.4,0,0,1,.56.36,8.62,8.62,0,0,1,2.48-.32,10.28,10.28,0,0,1,2.48.32l.48-.32a5.62,5.62,0,0,1,1.2-.56,1.81,1.81,0,0,1,1-.16,3.4,3.4,0,0,1,.12,2.64,3.81,3.81,0,0,1,1,2.68,6,6,0,0,1-.28,2,4.31,4.31,0,0,1-.68,1.36,3.69,3.69,0,0,1-1,.88,5.46,5.46,0,0,1-1.24.52,6.46,6.46,0,0,1-1.32.24A2.35,2.35,0,0,1,20,23.7v3.12a.8.8,0,0,0,.08.36.48.48,0,0,0,.2.2c.08,0,.16,0,.24.08h3.24a3.48,3.48,0,0,0,2.64-1.12,3.69,3.69,0,0,0,1.12-2.64V11.26a3.67,3.67,0,0,0-1.16-2.64Z" fill="#e5e5e5"/></svg>