<?xml version="1.0" encoding="utf-8"?>
<!-- Generator: Adobe Illustrator 20.0.0, SVG Export Plug-In . SVG Version: 6.00 Build 0)  -->
<svg version="1.1" id="Capa_1" xmlns="http://www.w3.org/2000/svg" xmlns:xlink="http://www.w3.org/1999/xlink" x="0px" y="0px"
	 viewBox="0 0 27.1 27.1" style="enable-background:new 0 0 27.1 27.1;" xml:space="preserve">
<style type="text/css">
	.st0{fill-rule:evenodd;clip-rule:evenodd;fill:#7098ca;}
</style>
<title>idea</title>
<g>
	<path class="st0" d="M13.6,2c6.4,0,11.6,5.2,11.6,11.6s-5.2,11.6-11.6,11.6S2,19.9,2,13.6S7.2,2,13.6,2L13.6,2z M13.6,2.3
		c6.2,0,11.3,5.1,11.3,11.3c0,6.2-5.1,11.3-11.3,11.3c-6.2,0-11.3-5.1-11.3-11.3C2.3,7.3,7.3,2.3,13.6,2.3L13.6,2.3z"/>
	<path class="st0" d="M13.6,9.7c2.1,0,3.9,1.7,3.9,3.9c0,2.1-1.7,3.9-3.9,3.9c-2.1,0-3.9-1.7-3.9-3.9C9.7,11.4,11.4,9.7,13.6,9.7
		L13.6,9.7z M13.6,9.7c2.1,0,3.8,1.7,3.8,3.8s-1.7,3.8-3.8,3.8s-3.8-1.7-3.8-3.8S11.4,9.7,13.6,9.7L13.6,9.7z"/>
	<path class="st0" d="M13.6,9.9c2,0,3.7,1.7,3.7,3.7s-1.7,3.7-3.7,3.7c-2,0-3.7-1.7-3.7-3.7S11.5,9.9,13.6,9.9L13.6,9.9z M13.6,10
		c2,0,3.5,1.6,3.5,3.5s-1.6,3.5-3.5,3.5c-2,0-3.5-1.6-3.5-3.5S11.6,10,13.6,10L13.6,10z"/>
	<path class="st0" d="M13.6,9.6c2.2,0,4,1.8,4,4c0,2.2-1.8,4-4,4c-2.2,0-4-1.8-4-4C9.6,11.4,11.4,9.6,13.6,9.6L13.6,9.6z M13.6,9.6
		c2.2,0,3.9,1.8,3.9,3.9s-1.8,3.9-3.9,3.9s-3.9-1.8-3.9-3.9S11.4,9.6,13.6,9.6L13.6,9.6z"/>
	<rect x="13.5" y="8.9" class="st0" width="0.1" height="0.7"/>
	<polygon class="st0" points="13,9 13.1,8.9 13.2,9.6 13.1,9.6 	"/>
	<polygon class="st0" points="12.6,9 12.6,9 12.8,9.7 12.7,9.7 	"/>
	<rect x="12.2" y="9.1" transform="matrix(0.9509 -0.3097 0.3097 0.9509 -2.3329 4.2544)" class="st0" width="0.1" height="0.7"/>
	<polygon class="st0" points="11.6,9.3 11.7,9.3 12,9.9 11.9,10 	"/>
	<rect x="11.4" y="9.5" transform="matrix(0.8663 -0.4995 0.4995 0.8663 -3.3897 7.0181)" class="st0" width="0.1" height="0.7"/>
	<polygon class="st0" points="10.8,9.8 10.9,9.8 11.3,10.3 11.2,10.4 	"/>
	<polygon class="st0" points="10.4,10.1 10.5,10.1 11,10.6 10.9,10.7 	"/>
	<polygon class="st0" points="10.1,10.5 10.2,10.4 10.7,10.9 10.6,10.9 	"/>
	<rect x="10" y="10.7" transform="matrix(0.5875 -0.8092 0.8092 0.5875 -4.7686 12.7154)" class="st0" width="0.1" height="0.7"/>
	<rect x="9.8" y="11.1" transform="matrix(0.4997 -0.8662 0.8662 0.4997 -4.9603 14.2363)" class="st0" width="0.1" height="0.7"/>
	<polygon class="st0" points="9.3,11.7 9.3,11.6 10,11.9 9.9,12 	"/>
	<rect x="9.4" y="11.9" transform="matrix(0.3097 -0.9508 0.9508 0.3097 -5.088 17.4555)" class="st0" width="0.1" height="0.7"/>
	<polygon class="st0" points="9,12.6 9,12.5 9.7,12.7 9.7,12.8 	"/>
	<polygon class="st0" points="8.9,13.1 9,13 9.6,13.1 9.6,13.2 	"/>
	<rect x="8.9" y="13.5" class="st0" width="0.7" height="0.1"/>
	<polygon class="st0" points="9,14.1 8.9,14 9.6,13.9 9.6,14 	"/>
	<polygon class="st0" points="9,14.6 9,14.5 9.7,14.3 9.7,14.4 	"/>
	<polygon class="st0" points="9.2,15 9.1,14.9 9.8,14.7 9.8,14.8 	"/>
	<polygon class="st0" points="9.3,15.5 9.3,15.4 9.9,15.1 10,15.2 	"/>
	<rect x="9.5" y="15.7" transform="matrix(0.8662 -0.4997 0.4997 0.8662 -6.531 7.0208)" class="st0" width="0.7" height="0.1"/>
	<rect x="9.7" y="16" transform="matrix(0.8092 -0.5875 0.5875 0.8092 -7.5231 8.9943)" class="st0" width="0.7" height="0.1"/>
	<polygon class="st0" points="10.2,16.7 10.1,16.6 10.6,16.2 10.7,16.2 	"/>
	<polygon class="st0" points="10.5,17 10.4,17 10.9,16.5 11,16.5 	"/>
	<polygon class="st0" points="10.9,17.3 10.8,17.3 11.2,16.7 11.3,16.8 	"/>
	<polygon class="st0" points="11.3,17.6 11.2,17.5 11.5,17 11.6,17 	"/>
	<polygon class="st0" points="11.7,17.8 11.6,17.8 11.9,17.2 12,17.2 	"/>
	<rect x="11.9" y="17.6" transform="matrix(0.3092 -0.951 0.951 0.3092 -8.3247 23.8215)" class="st0" width="0.7" height="0.1"/>
	<polygon class="st0" points="12.6,18.1 12.6,18.1 12.7,17.4 12.8,17.4 	"/>
	<polygon class="st0" points="13.1,18.2 13,18.2 13.1,17.5 13.2,17.5 	"/>
	<rect x="13.5" y="17.5" class="st0" width="0.1" height="0.7"/>
	<polygon class="st0" points="14.1,18.2 14,18.2 13.9,17.5 14,17.5 	"/>
	<polygon class="st0" points="14.6,18.1 14.5,18.1 14.3,17.4 14.4,17.4 	"/>
	<rect x="14.8" y="17.3" transform="matrix(0.951 -0.3093 0.3093 0.951 -4.7259 5.4695)" class="st0" width="0.1" height="0.7"/>
	<polygon class="st0" points="15.5,17.8 15.4,17.8 15.1,17.2 15.2,17.2 	"/>
	<polygon class="st0" points="15.9,17.5 15.8,17.6 15.5,17 15.6,17 	"/>
	<rect x="16" y="16.7" transform="matrix(0.8094 -0.5872 0.5872 0.8094 -6.9357 12.6923)" class="st0" width="0.1" height="0.7"/>
	<polygon class="st0" points="16.7,17 16.6,17 16.2,16.5 16.2,16.5 	"/>
	<polygon class="st0" points="17,16.6 17,16.7 16.5,16.2 16.5,16.2 	"/>
	<rect x="17" y="15.7" transform="matrix(0.5873 -0.8094 0.8094 0.5873 -5.9854 20.426)" class="st0" width="0.1" height="0.7"/>
	<rect x="17.2" y="15.4" transform="matrix(0.5002 -0.8659 0.8659 0.5002 -4.9622 22.8124)" class="st0" width="0.1" height="0.7"/>
	<polygon class="st0" points="17.8,15.4 17.8,15.5 17.2,15.2 17.2,15.1 	"/>
	<rect x="17.6" y="14.5" transform="matrix(0.3093 -0.951 0.951 0.3093 -1.9674 27.0614)" class="st0" width="0.1" height="0.7"/>
	<polygon class="st0" points="18.1,14.5 18.1,14.6 17.4,14.4 17.4,14.3 	"/>
	<polygon class="st0" points="18.2,14 18.2,14.1 17.5,14 17.5,13.9 	"/>
	<rect x="17.5" y="13.5" class="st0" width="0.7" height="0.1"/>
	<polygon class="st0" points="18.2,13 18.2,13.1 17.5,13.2 17.5,13.1 	"/>
	<polygon class="st0" points="18.1,12.5 18.1,12.6 17.4,12.8 17.4,12.7 	"/>
	<rect x="17.3" y="12.2" transform="matrix(0.951 -0.3093 0.3093 0.951 -2.9184 6.0585)" class="st0" width="0.7" height="0.1"/>
	<polygon class="st0" points="17.8,11.6 17.8,11.7 17.2,12 17.2,11.9 	"/>
	<rect x="16.9" y="11.4" transform="matrix(0.8659 -0.5001 0.5001 0.8659 -3.391 10.1727)" class="st0" width="0.7" height="0.1"/>
	<rect x="16.7" y="11" transform="matrix(0.8094 -0.5873 0.5873 0.8094 -3.2335 12.1091)" class="st0" width="0.7" height="0.1"/>
	<polygon class="st0" points="17,10.4 17,10.5 16.5,10.9 16.5,10.9 	"/>
	<polygon class="st0" points="16.6,10.1 16.7,10.1 16.2,10.7 16.2,10.6 	"/>
	<rect x="15.7" y="10" transform="matrix(0.5874 -0.8093 0.8093 0.5874 -1.5251 17.1807)" class="st0" width="0.7" height="0.1"/>
	<rect x="15.4" y="9.8" transform="matrix(0.4996 -0.8663 0.8663 0.4996 -0.6642 18.5322)" class="st0" width="0.7" height="0.1"/>
	<polygon class="st0" points="15.4,9.3 15.5,9.3 15.2,10 15.1,9.9 	"/>
	<rect x="14.5" y="9.4" transform="matrix(0.3097 -0.9508 0.9508 0.3097 1.2676 20.6981)" class="st0" width="0.7" height="0.1"/>
	<polygon class="st0" points="14.5,9 14.6,9 14.4,9.7 14.3,9.7 	"/>
	<polygon class="st0" points="14,8.9 14.1,9 14,9.6 13.9,9.6 	"/>
	<path class="st0" d="M13.6,8.5c2.8,0,5,2.3,5,5s-2.3,5-5,5c-2.8,0-5-2.3-5-5S10.8,8.5,13.6,8.5L13.6,8.5z M13.6,8.7
		c2.7,0,4.8,2.2,4.8,4.8c0,2.7-2.2,4.8-4.8,4.8s-4.8-2.2-4.8-4.8C8.8,10.9,10.9,8.7,13.6,8.7L13.6,8.7z"/>
	<path class="st0" d="M16.5,2c-0.9-0.2-1.7-0.3-2.6-0.3V1.4c0.9,0,1.8,0.1,2.7,0.4L16.5,2z"/>
	<path class="st0" d="M19.3,3.1c-0.8-0.4-1.6-0.8-2.5-1l0.1-0.3c0.9,0.3,1.7,0.6,2.5,1.1L19.3,3.1z"/>
	<path class="st0" d="M21.9,5c-0.6-0.6-1.4-1.2-2.1-1.6l0.1-0.2c0.8,0.5,1.5,1,2.2,1.7L21.9,5z"/>
	<path class="st0" d="M23.8,7.4c-0.5-0.8-1-1.5-1.6-2.1l0.2-0.2C23,5.8,23.6,6.5,24,7.3L23.8,7.4z"/>
	<path class="st0" d="M25,10.3c-0.2-0.9-0.6-1.7-1-2.5l0.2-0.1c0.4,0.8,0.8,1.6,1,2.5L25,10.3z"/>
	<path class="st0" d="M25.5,13.4c0-0.5,0-0.9-0.1-1.4c-0.1-0.4-0.1-0.9-0.2-1.3l0.3-0.1c0.1,0.4,0.2,0.9,0.2,1.3
		c0.1,0.5,0.1,0.9,0.1,1.4H25.5z"/>
	<path class="st0" d="M25.1,16.5c0.2-0.9,0.3-1.8,0.4-2.6h0.3c0,0.9-0.1,1.8-0.4,2.7L25.1,16.5z"/>
	<path class="st0" d="M24,19.4c0.4-0.8,0.8-1.6,1-2.5l0.3,0.1c-0.3,0.9-0.6,1.7-1.1,2.5L24,19.4z"/>
	<path class="st0" d="M22.1,21.9c0.6-0.6,1.2-1.3,1.6-2.1l0.2,0.1c-0.5,0.8-1,1.5-1.7,2.2L22.1,21.9z"/>
	<path class="st0" d="M19.6,23.8c0.8-0.5,1.5-1,2.1-1.6l0.2,0.2c-0.7,0.6-1.4,1.2-2.2,1.7L19.6,23.8z"/>
	<path class="st0" d="M16.8,25.1c0.9-0.2,1.7-0.6,2.5-1l0.1,0.2c-0.8,0.4-1.6,0.8-2.5,1L16.8,25.1z"/>
	<path class="st0" d="M13.7,25.5c0.5,0,0.9,0,1.4-0.1c0.4-0.1,0.8-0.1,1.2-0.2l0.1,0.3c-0.4,0.1-0.8,0.2-1.2,0.2
		c-0.5,0.1-1,0.1-1.5,0.1V25.5z"/>
	<path class="st0" d="M10.6,25.1c0.9,0.2,1.7,0.3,2.6,0.4v0.3c-0.9,0-1.8-0.2-2.7-0.4L10.6,25.1z"/>
	<path class="st0" d="M7.7,24c0.8,0.4,1.6,0.8,2.4,1l-0.1,0.3c-0.9-0.3-1.7-0.6-2.5-1.1L7.7,24z"/>
	<path class="st0" d="M5.2,22.1c0.6,0.6,1.3,1.2,2.1,1.6L7.2,24c-0.8-0.5-1.5-1-2.1-1.7L5.2,22.1z"/>
	<path class="st0" d="M3.3,19.7c0.5,0.8,1,1.5,1.6,2.1L4.7,22c-0.6-0.7-1.2-1.4-1.6-2.2L3.3,19.7z"/>
	<path class="st0" d="M2.1,16.8c0.2,0.9,0.6,1.7,1,2.5l-0.2,0.1c-0.4-0.8-0.8-1.6-1-2.5L2.1,16.8z"/>
	<path class="st0" d="M1.6,13.7c0,0.5,0,0.9,0.1,1.4C1.8,15.5,1.9,16,2,16.4l-0.3,0.1c-0.1-0.4-0.2-0.8-0.2-1.3
		c-0.1-0.5-0.1-1-0.1-1.4H1.6z"/>
	<path class="st0" d="M2,10.7c-0.2,0.8-0.3,1.7-0.4,2.6H1.4c0-0.9,0.1-1.8,0.4-2.7L2,10.7z"/>
	<path class="st0" d="M3.1,7.8c-0.4,0.8-0.8,1.6-1,2.4l-0.3-0.1c0.3-0.9,0.6-1.7,1.1-2.5L3.1,7.8z"/>
	<path class="st0" d="M5,5.3C4.4,5.9,3.8,6.6,3.4,7.4L3.1,7.2c0.5-0.8,1-1.5,1.7-2.2L5,5.3z"/>
	<path class="st0" d="M7.4,3.3C6.6,3.8,5.9,4.3,5.3,5L5.1,4.8c0.7-0.6,1.4-1.2,2.2-1.7L7.4,3.3z"/>
	<path class="st0" d="M10.3,2.1c-0.9,0.2-1.7,0.6-2.5,1L7.7,2.9c0.8-0.4,1.6-0.8,2.5-1L10.3,2.1z"/>
	<path class="st0" d="M12,1.5c0.5-0.1,0.9-0.1,1.4-0.1v0.3c-0.4,0-0.9,0-1.3,0.1c-0.4,0.1-0.9,0.1-1.3,0.2l-0.1-0.3
		C11.1,1.6,11.5,1.5,12,1.5L12,1.5z"/>
	<path class="st0" d="M17.8,2.7C17,2.3,16.2,2.1,15.3,2l0-0.3c0.9,0.1,1.8,0.4,2.6,0.7L17.8,2.7z"/>
	<path class="st0" d="M20.5,4.1c-0.7-0.5-1.4-1-2.3-1.3l0.1-0.2C19.2,3,20,3.4,20.7,3.9L20.5,4.1z"/>
	<path class="st0" d="M22.7,6.3c-0.5-0.7-1.2-1.3-1.8-1.8L21,4.2c0.7,0.6,1.3,1.2,1.9,1.9L22.7,6.3z"/>
	<path class="st0" d="M24.3,8.9C24,8.1,23.5,7.3,23,6.6l0.2-0.2c0.5,0.7,1,1.5,1.3,2.3L24.3,8.9z"/>
	<path class="st0" d="M25.1,11.8c-0.1-0.9-0.4-1.7-0.7-2.5l0.2-0.1c0.3,0.8,0.6,1.7,0.7,2.6L25.1,11.8z"/>
	<path class="st0" d="M25.2,14.9c0.1-0.4,0.1-0.9,0.1-1.4c0-0.4,0-0.8-0.1-1.2l0.3,0c0,0.4,0.1,0.8,0.1,1.3c0,0.5,0,0.9-0.1,1.4
		L25.2,14.9z"/>
	<path class="st0" d="M24.4,17.9c0.3-0.8,0.6-1.6,0.7-2.5l0.3,0c-0.1,0.9-0.4,1.8-0.7,2.6L24.4,17.9z"/>
	<path class="st0" d="M22.9,20.6c0.5-0.7,1-1.4,1.3-2.2l0.2,0.1c-0.4,0.8-0.8,1.6-1.4,2.3L22.9,20.6z"/>
	<path class="st0" d="M20.8,22.8c0.7-0.5,1.3-1.2,1.9-1.8l0.2,0.2c-0.6,0.7-1.2,1.3-1.9,1.9L20.8,22.8z"/>
	<path class="st0" d="M18.2,24.3c0.8-0.3,1.6-0.8,2.3-1.3l0.2,0.2c-0.7,0.5-1.5,1-2.3,1.3L18.2,24.3z"/>
	<path class="st0" d="M15.2,25.1c0.9-0.1,1.7-0.3,2.5-0.6l0.1,0.2c-0.8,0.3-1.7,0.5-2.6,0.7L15.2,25.1z"/>
	<path class="st0" d="M12.2,25.2c0.5,0.1,0.9,0.1,1.4,0.1c0.4,0,0.8,0,1.2-0.1l0,0.3c-0.4,0-0.8,0.1-1.2,0.1c-0.5,0-1,0-1.4-0.1
		L12.2,25.2z"/>
	<path class="st0" d="M9.2,24.4c0.8,0.3,1.6,0.6,2.5,0.7l0,0.3c-0.9-0.1-1.7-0.4-2.6-0.7L9.2,24.4z"/>
	<path class="st0" d="M6.5,22.9c0.7,0.5,1.4,1,2.2,1.3l-0.1,0.2c-0.8-0.4-1.6-0.8-2.3-1.3L6.5,22.9z"/>
	<path class="st0" d="M4.4,20.8c0.5,0.7,1.1,1.3,1.8,1.8L6,22.8c-0.7-0.6-1.3-1.2-1.9-1.9L4.4,20.8z"/>
	<path class="st0" d="M2.8,18.2c0.3,0.8,0.8,1.5,1.3,2.2l-0.2,0.2c-0.5-0.7-1-1.5-1.3-2.3L2.8,18.2z"/>
	<path class="st0" d="M2,15.3c0.1,0.9,0.3,1.7,0.7,2.5l-0.2,0.1c-0.3-0.8-0.5-1.7-0.7-2.6L2,15.3z"/>
	<path class="st0" d="M1.9,12.2c-0.1,0.4-0.1,0.9-0.1,1.3c0,0.4,0,0.8,0.1,1.2l-0.3,0c0-0.4-0.1-0.8-0.1-1.3c0-0.5,0-0.9,0.1-1.4
		L1.9,12.2z"/>
	<path class="st0" d="M2.7,9.3c-0.3,0.8-0.5,1.6-0.7,2.5l-0.3,0c0.1-0.9,0.4-1.7,0.7-2.6L2.7,9.3z"/>
	<path class="st0" d="M4.1,6.6C3.6,7.3,3.2,8,2.8,8.8L2.6,8.7C3,7.9,3.4,7.2,3.9,6.4L4.1,6.6z"/>
	<path class="st0" d="M6.3,4.4C5.6,4.9,5,5.6,4.4,6.2L4.2,6.1c0.6-0.7,1.2-1.3,1.9-1.9L6.3,4.4z"/>
	<path class="st0" d="M8.9,2.8C8.1,3.2,7.3,3.6,6.6,4.1L6.5,3.9C7.2,3.4,8,3,8.8,2.6L8.9,2.8z"/>
	<path class="st0" d="M11.8,2c-0.9,0.1-1.7,0.4-2.5,0.7L9.2,2.4c0.8-0.3,1.7-0.6,2.6-0.7L11.8,2z"/>
	<path class="st0" d="M13.6,1.6c0.4,0,0.9,0,1.3,0.1l0,0.3c-0.4,0-0.9-0.1-1.3-0.1c-0.4,0-0.9,0-1.3,0.1l0-0.3
		C12.7,1.6,13.1,1.6,13.6,1.6L13.6,1.6z"/>
	<path class="st0" d="M13.6,0.3c7.3,0,13.3,5.9,13.3,13.3s-5.9,13.3-13.3,13.3S0.3,20.9,0.3,13.6S6.2,0.3,13.6,0.3L13.6,0.3z
		 M13.6,0.4c7.3,0,13.2,5.9,13.2,13.2s-5.9,13.2-13.2,13.2c-7.3,0-13.2-5.9-13.2-13.2S6.3,0.4,13.6,0.4L13.6,0.4z"/>
	<path class="st0" d="M13.6,0c7.5,0,13.6,6.1,13.6,13.6s-6.1,13.6-13.6,13.6C6.1,27.1,0,21,0,13.6S6.1,0,13.6,0L13.6,0z M13.6,0.1
		C21,0.1,27,6.1,27,13.6C27,21,21,27,13.6,27C6.1,27,0.1,21,0.1,13.6C0.1,6.1,6.1,0.1,13.6,0.1L13.6,0.1z"/>
	<path class="st0" d="M13.6,7.1c0.5,0,1.1,0.1,1.6,0.2l-0.3,1.2c-0.4-0.1-0.8-0.2-1.3-0.2V7.1z M15.3,7.3c0.5,0.1,1,0.3,1.5,0.6
		L16.1,9c-0.4-0.2-0.8-0.4-1.2-0.5L15.3,7.3z M16.9,8c0.5,0.3,0.9,0.6,1.3,1l-0.9,0.9c-0.3-0.3-0.6-0.6-1-0.8L16.9,8z M18.2,9
		c0.4,0.4,0.7,0.8,1,1.3l-1.1,0.6c-0.2-0.4-0.5-0.7-0.8-1L18.2,9z M19.2,10.4c0.3,0.5,0.5,1,0.6,1.5l-1.2,0.3
		c-0.1-0.4-0.3-0.8-0.5-1.2L19.2,10.4z M19.9,11.9c0.1,0.5,0.2,1,0.2,1.6h-1.2c0-0.5-0.1-0.9-0.2-1.3L19.9,11.9z M20.1,13.6
		c0,0.5-0.1,1.1-0.2,1.6l-1.2-0.3c0.1-0.4,0.2-0.8,0.2-1.3H20.1z M19.8,15.3c-0.1,0.5-0.3,1-0.6,1.5l-1.1-0.6
		c0.2-0.4,0.4-0.8,0.5-1.2L19.8,15.3z M19.2,16.9c-0.3,0.5-0.6,0.9-1,1.3l-0.9-0.9c0.3-0.3,0.6-0.6,0.8-1L19.2,16.9z M18.1,18.2
		c-0.4,0.4-0.8,0.7-1.3,1l-0.6-1.1c0.4-0.2,0.7-0.5,1-0.8L18.1,18.2z M16.8,19.2c-0.5,0.3-1,0.5-1.5,0.6L15,18.6
		c0.4-0.1,0.8-0.3,1.2-0.5L16.8,19.2z M15.2,19.9c-0.5,0.1-1,0.2-1.6,0.2v-1.2c0.4,0,0.9-0.1,1.3-0.2L15.2,19.9z M13.5,20.1
		c-0.5,0-1.1-0.1-1.6-0.2l0.3-1.2c0.4,0.1,0.8,0.2,1.3,0.2V20.1z M11.8,19.8c-0.5-0.1-1-0.3-1.5-0.6l0.6-1.1
		c0.4,0.2,0.8,0.4,1.2,0.5L11.8,19.8z M10.3,19.2c-0.5-0.3-0.9-0.6-1.3-1l0.9-0.9c0.3,0.3,0.6,0.6,1,0.8L10.3,19.2z M8.9,18.1
		c-0.4-0.4-0.7-0.8-1-1.3L9,16.2c0.2,0.4,0.5,0.7,0.8,1L8.9,18.1z M7.9,16.8c-0.3-0.5-0.5-1-0.6-1.5L8.5,15c0.1,0.4,0.3,0.8,0.5,1.2
		L7.9,16.8z M7.3,15.2c-0.1-0.5-0.2-1-0.2-1.6h1.2c0,0.4,0.1,0.9,0.2,1.3L7.3,15.2z M7.1,13.5c0-0.6,0.1-1.1,0.2-1.6l1.2,0.3
		c-0.1,0.4-0.2,0.8-0.2,1.3H7.1z M7.3,11.8c0.1-0.5,0.3-1,0.6-1.5L9,11c-0.2,0.4-0.4,0.8-0.5,1.2L7.3,11.8z M8,10.3
		c0.3-0.5,0.6-0.9,1-1.3l0.9,0.9c-0.3,0.3-0.6,0.6-0.8,1L8,10.3z M9,8.9c0.4-0.4,0.8-0.7,1.3-1L10.9,9c-0.4,0.2-0.7,0.5-1,0.8L9,8.9
		z M10.4,7.9c0.5-0.3,1-0.5,1.5-0.6l0.3,1.2C11.7,8.6,11.3,8.8,11,9L10.4,7.9z M11.9,7.3c0.5-0.1,1-0.2,1.6-0.2v1.2
		c-0.5,0-0.9,0.1-1.3,0.2L11.9,7.3z"/>
	<path class="st0" d="M13.6,6.7c3.8,0,6.9,3.1,6.9,6.9c0,3.8-3.1,6.9-6.9,6.9c-3.8,0-6.9-3.1-6.9-6.9C6.7,9.8,9.8,6.7,13.6,6.7
		L13.6,6.7z M13.6,6.8c3.7,0,6.7,3,6.7,6.7c0,3.7-3,6.7-6.7,6.7s-6.7-3-6.7-6.7C6.8,9.8,9.8,6.8,13.6,6.8L13.6,6.8z"/>
	<path class="st0" d="M12.3,12.3L12.3,12.3l1.2,1.1c0,0,0.1,0,0.1,0c0,0,0.1,0,0.1,0l1.1-1.1l0,0l-1.1,1.1c0,0,0,0.1,0,0.1
		s0,0.1,0,0.1l1.1,1.1l0,0l-1.1-1.1c0,0-0.1,0-0.1,0c0,0-0.1,0-0.1,0l-1.1,1.1l0,0l1.1-1.1c0,0,0-0.1,0-0.1s0-0.1,0-0.1L12.3,12.3z"
		/>
	<polygon class="st0" points="13.6,22.6 14.4,24.1 12.7,24.1 	"/>
	<polygon class="st0" points="15.9,22.3 17.1,23.5 15.5,24 	"/>
	<polygon class="st0" points="22.3,15.9 24,15.5 23.6,17.1 	"/>
	<polygon class="st0" points="22.6,13.6 24.1,12.7 24.1,14.4 	"/>
	<polygon class="st0" points="7.2,7.2 5.5,6.7 6.7,5.5 	"/>
	<path class="st0" d="M13.6,2.9c5.9,0,10.6,4.8,10.6,10.6c0,5.9-4.7,10.6-10.6,10.6v-0.1c5.8,0,10.5-4.7,10.5-10.5
		C24.1,7.7,19.4,3,13.6,2.9C7.7,3,3,7.7,3,13.6H2.9C2.9,7.7,7.7,2.9,13.6,2.9L13.6,2.9z"/>
	<path class="st0" d="M13.6,3.6c0.6,0,1.2,0.5,1.2,1.2c0,0.6-0.5,1.2-1.2,1.2c-0.6,0-1.2-0.5-1.2-1.2C12.4,4.2,12.9,3.6,13.6,3.6
		L13.6,3.6z M13.6,3.7c0.6,0,1.1,0.5,1.1,1.1c0,0.6-0.5,1.1-1.1,1.1c-0.6,0-1.1-0.5-1.1-1.1C12.5,4.2,12.9,3.7,13.6,3.7L13.6,3.7z"
		/>
	<path class="st0" d="M13.6,4c0.5,0,0.8,0.4,0.8,0.8c0,0.5-0.4,0.8-0.8,0.8c-0.5,0-0.8-0.4-0.8-0.8C12.7,4.4,13.1,4,13.6,4L13.6,4z
		 M13.6,4c0.4,0,0.8,0.4,0.8,0.8c0,0.4-0.4,0.8-0.8,0.8c-0.4,0-0.8-0.4-0.8-0.8C12.8,4.4,13.1,4,13.6,4L13.6,4z"/>
	<path class="st0" d="M16.7,1c-0.9-0.2-1.9-0.4-2.9-0.4V0.3c1,0,2,0.1,2.9,0.4L16.7,1z M1.1,17.1c0.3,0.9,0.6,1.8,1.1,2.7L2,19.9
		c-0.5-0.9-0.8-1.8-1.1-2.7L1.1,17.1z M2.4,20.2c0.5,0.8,1.1,1.6,1.7,2.3L4,22.7c-0.7-0.7-1.3-1.5-1.8-2.3L2.4,20.2z M10.4,26.1
		c0.9,0.2,1.9,0.4,2.9,0.4v0.3c-1,0-2-0.2-2.9-0.4L10.4,26.1z M22.8,22.6c0.7-0.7,1.3-1.5,1.8-2.3l0.2,0.1c-0.5,0.8-1.1,1.6-1.8,2.3
		L22.8,22.6z M26.1,16.8c0.2-0.9,0.4-1.9,0.4-2.9h0.3c0,1-0.2,2-0.4,2.9L26.1,16.8z M19.8,2.2c-0.8-0.5-1.7-0.8-2.7-1.1l0.1-0.3
		c1,0.3,1.9,0.7,2.7,1.1L19.8,2.2z"/>
</g>
</svg>
