<?xml version="1.0" encoding="utf-8"?>
<!-- Generator: Adobe Illustrator 20.0.0, SVG Export Plug-In . SVG Version: 6.00 Build 0)  -->
<svg version="1.1" id="Capa_1" xmlns="http://www.w3.org/2000/svg" xmlns:xlink="http://www.w3.org/1999/xlink" x="0px" y="0px"
	 viewBox="0 0 36.3 23.8" style="enable-background:new 0 0 36.3 23.8;" xml:space="preserve">
<style type="text/css">
	.st0{fill:#00758F;}
	.st1{fill:#F29111;}
	.st2{fill:#FFFFFF;}
</style>
<title>logo</title>
<g>
	<path class="st0" d="M0.9,10.8c-0.3,0-0.6,0-0.9-0.2V9.8c0.3,0.1,0.6,0.1,0.9,0.1c0.3,0,0.7-0.1,0.9-0.4C2,9.3,2.1,8.9,2,8.6V0h1
		v8.5c0,0.6-0.2,1.2-0.6,1.7C2,10.6,1.5,10.8,0.9,10.8z"/>
	<path class="st0" d="M5.3,8.6V0h1v7.7h3.8v0.9H5.3z"/>
	<path class="st0" d="M12.6,5v3.6h-1V0h2.3c0.8-0.1,1.6,0.1,2.3,0.6C16.8,1,17,1.7,17,2.4c0,1.1-0.7,2-1.7,2.3l2.3,3.8h-1.2L14.3,5
		H12.6z M12.6,4.1h1.4c0.5,0,1.1-0.1,1.6-0.4C15.8,3.4,16,2.9,16,2.5c0-0.5-0.2-0.9-0.5-1.2c-0.5-0.3-1-0.4-1.6-0.4h-1.3V4.1z"/>
	<path class="st1" d="M23.7,8.6H19V0h4.8v0.9H20v2.8h3.5v0.9H20v3.1h3.8L23.7,8.6z"/>
	<path class="st1" d="M32.5,4.2c0.1,1.2-0.3,2.4-1.1,3.2c-0.9,0.8-2.1,1.2-3.3,1.1h-2.4V0h2.6c1.1-0.1,2.3,0.3,3.1,1.1
		C32.2,1.9,32.5,3.1,32.5,4.2z M31.4,4.3c0.1-0.9-0.2-1.8-0.8-2.5c-0.7-0.6-1.6-0.9-2.5-0.9h-1.4v6.8h1.2c1,0.1,1.9-0.2,2.7-0.9
		C31.2,6.1,31.5,5.2,31.4,4.3z"/>
	<path class="st1" d="M34.2,8.1H34V6.8h-0.5V6.6h1.1v0.1h-0.5V8.1z"/>
	<path class="st1" d="M35.5,8.1L35,6.8l0,0c0,0.1,0,0.2,0,0.4v0.9h-0.2V6.6h0.2l0.5,1.2l0,0L36,6.6h0.2v1.4h-0.2V7.1
		c0-0.1,0-0.2,0-0.3l0,0l-0.5,1.3H35.5z"/>
</g>
<g>
	<path class="st2" d="M0.9,23.8c-0.3,0-0.6,0-0.9-0.2v-0.9c0.3,0.1,0.6,0.1,0.9,0.1c0.3,0,0.7-0.1,0.9-0.4c0.2-0.3,0.3-0.6,0.3-1V13
		h1v8.5c0,0.6-0.2,1.2-0.6,1.7C2,23.6,1.5,23.9,0.9,23.8z"/>
	<path class="st2" d="M5.3,21.6V13h1v7.7h3.8v0.9L5.3,21.6z"/>
	<path class="st2" d="M12.5,18v3.6h-1V13h2.4c0.8-0.1,1.6,0.1,2.3,0.6c0.5,0.4,0.8,1.1,0.8,1.8c0,1.1-0.7,2-1.7,2.3l2.3,3.9h-1.2
		L14.3,18H12.5z M12.5,17.1h1.4c0.5,0,1.1-0.1,1.6-0.4c0.3-0.3,0.5-0.8,0.5-1.3c0-0.5-0.1-0.9-0.5-1.2c-0.5-0.3-1-0.4-1.6-0.4h-1.3
		V17.1z"/>
	<path class="st2" d="M23.7,21.6H19V13h4.8v0.9H20v2.8h3.5v0.9H20v3.2h3.8L23.7,21.6z"/>
	<path class="st2" d="M32.5,17.2c0.1,1.2-0.3,2.4-1.1,3.2c-0.9,0.8-2.1,1.2-3.3,1.1h-2.4V13h2.6c1.1-0.1,2.3,0.3,3.1,1.1
		C32.2,14.9,32.6,16.1,32.5,17.2z M31.4,17.2c0.1-0.9-0.2-1.8-0.8-2.5c-0.7-0.6-1.6-0.9-2.5-0.9h-1.5v6.8h1.2c1,0.1,1.9-0.2,2.7-0.9
		C31.1,19.1,31.5,18.2,31.4,17.2L31.4,17.2z"/>
	<path class="st2" d="M34.2,21.1H34v-1.3h-0.5v-0.1h1.1v0.1h-0.5V21.1z"/>
	<path class="st2" d="M35.5,21.1L35,19.8l0,0c0,0.1,0,0.2,0,0.4v0.9h-0.2v-1.4h0.2l0.5,1.2l0,0l0.5-1.2h0.2v1.4h-0.2v-0.9
		c0-0.1,0-0.2,0-0.3l0,0l-0.5,1.3H35.5z"/>
</g>
</svg>
