<?xml version="1.0" encoding="utf-8"?>
<!-- Generator: Adobe Illustrator 20.0.0, SVG Export Plug-In . SVG Version: 6.00 Build 0)  -->
<svg version="1.1" id="Capa_1" xmlns="http://www.w3.org/2000/svg" xmlns:xlink="http://www.w3.org/1999/xlink" x="0px" y="0px"
	 viewBox="0 0 35 35" style="enable-background:new 0 0 35 35;" xml:space="preserve">
<style type="text/css">
	.st0{fill:#FF9933;}
	.st1{fill:#DD830C;}
	.st2{fill:#FFFFFF;}
</style>
<title>ico_sites</title>
<path class="st0" d="M27,35H8c-4.4,0-8-3.6-8-8V8c0-4.4,3.6-8,8-8h19c4.4,0,8,3.6,8,8v19C35,31.4,31.4,35,27,35z"/>
<g>
	<g>
		<path class="st1" d="M-26.7,27.2c0,0-1,0.6,0.7,0.7c1.9,0.2,3.7,0.2,5.6-0.2c0.5,0.3,1,0.6,1.5,0.7
			C-24.2,30.6-30.8,28.2-26.7,27.2"/>
		<path class="st1" d="M-27.4,24.2c0,0-1.1,0.8,0.6,1c2.3,0.3,4.8,0.2,7.1-0.3c0.3,0.3,0.6,0.6,1,0.6
			C-24.9,27.4-31.9,25.6-27.4,24.2"/>
		<path class="st1" d="M-22.1,19.2c0.6,0.8,0.6,2-0.2,2.7c0,0,0,0-0.1,0.1c0,0,3.2-1.7,1.7-3.8s-2.4-3,3.2-6.3
			C-17.3,12-26.3,14.3-22.1,19.2"/>
		<path class="st1" d="M-15.1,29.3c0,0,0.7,0.6-0.8,1c-3,0.8-12.5,1.1-15.1,0c-1-0.5,0.8-1,1.3-1c0.3-0.1,0.6-0.1,1-0.1
			c-1-0.7-6.8,1.5-2.9,2.1C-21.2,32.8-12.5,30.4-15.1,29.3"/>
		<path class="st1" d="M-26.3,21.2c0,0-4.8,1.1-1.7,1.6c2.1,0.2,4.3,0.1,6.4-0.1c2-0.2,3.9-0.6,3.9-0.6c-0.5,0.2-0.8,0.5-1.1,0.6
			c-4.8,1.3-14.3,0.6-11.7-0.6C-29.1,21.6-27.7,21.2-26.3,21.2"/>
		<path class="st1" d="M-17.6,26c5-2.6,2.7-5.1,1-4.8c-0.2,0-0.5,0.1-0.6,0.1c0.1-0.1,0.2-0.3,0.5-0.3C-13.4,20-11,24.3-17.6,26
			C-17.7,26.1-17.6,26.1-17.6,26"/>
		<path class="st1" d="M-20.6,6.6c0,0,2.7,2.7-2.7,6.9c-4.4,3.4-1,5.3,0,7.5c-2.6-2.2-4.4-4.3-3.1-6.1
			C-24.6,12.4-19.5,10.9-20.6,6.6"/>
		<path class="st1" d="M-25.8,33c4.8,0.3,12.1-0.2,12.3-2.4c0,0-0.3,0.8-3.9,1.5c-4,0.6-8,0.7-12.1,0.2
			C-29.6,32.3-28.9,32.7-25.8,33"/>
	</g>
	<g>
		<g>
			<path class="st2" d="M-27.3,27l1.2-0.7l-1.3,0.4c-1,0.3-1.5,0.7-1.4,1.1c0.1,0.8,2.1,1.4,4.4,1.4c1.2,0,3-0.2,4.8-0.9l0.4-0.2
				l-0.4-0.2c-0.8-0.3-1.4-0.7-1.4-0.7l-0.1,0l-0.1,0c-1.4,0.3-2.4,0.4-3.3,0.4c-0.6,0-1.3,0-2.2-0.1c-0.8-0.1-0.9-0.3-0.9-0.3
				C-27.5,27.1-27.4,27-27.3,27z"/>
			<path class="st2" d="M-25.1,31.8c5.2,0,9.8-1,10.1-2.2c0-0.2,0-0.5-0.6-0.8l-1.1-0.5l0.9,0.8c0,0,0.1,0.1,0.1,0.3
				c0,0.1-0.1,0.3-0.9,0.5c-1.5,0.5-5,0.8-8.4,0.8c-3.2,0-5.6-0.3-6.7-0.7c-0.1-0.1-0.2-0.1-0.2-0.1c0-0.2,0.8-0.5,1.5-0.7
				c0.4-0.1,0.7-0.1,0.8-0.1l0.7,0l-0.5-0.4c-0.2-0.1-0.4-0.2-0.8-0.2c-1.3,0-3.7,0.9-3.8,1.7c-0.1,0.7,1.1,0.8,1.5,0.9
				C-30,31.6-27.5,31.8-25.1,31.8L-25.1,31.8z"/>
			<path class="st2" d="M-27,23.4l-1,0.3c-1.1,0.4-1.6,0.8-1.5,1.2c0.1,0.9,2.5,1.3,4.7,1.3c1.9,0,4-0.3,5.8-0.8l0.5-0.2l-0.5-0.2
				c-0.6-0.2-1-0.6-1-0.6l-0.1-0.1l-0.1,0c-1.8,0.3-3.1,0.5-4.5,0.5c-0.8,0-1.6,0-2.6-0.2c-0.7-0.1-0.8-0.2-0.8-0.3
				c0-0.1,0.1-0.3,0.3-0.4L-27,23.4c0.4,0,0.7,0,0.8,0c2.6,0,5.1-0.3,6.9-0.7l0.1,0c0.5-0.3,1.2-0.6,1.2-0.6l1.4-0.6l-1.5,0.3
				c0,0-2,0.4-4,0.5c-0.5,0-0.9,0.1-1.4,0.1l0.7-0.4c0.1,0,1.9-1,2.2-2.4c0.1-0.6,0-1.1-0.4-1.7l-0.2-0.2c-0.6-0.8-1-1.4-0.9-2.1
				c0.2-0.9,1.5-2.1,4.3-3.7l1.1-0.6l-1.2,0.3c-0.2,0.1-5.1,1.3-6,4c-0.4,1.1,0,2.3,1.1,3.6c0.3,0.4,0.5,0.8,0.4,1.2
				c-0.1,0.8-0.8,1.4-0.8,1.4l-0.8,0.7c-1.9,0.1-3.7,0.1-4.7,0c-0.8-0.1-0.9-0.2-0.9-0.2c0.1-0.2,1.3-0.7,2.6-1l1.1-0.3l-1.2-0.1
				c0,0-0.1,0-0.2,0c-0.6,0-2.2,0.1-4.1,1c-0.2,0.1-0.7,0.3-0.6,0.7C-31.6,23.2-28.6,23.3-27,23.4z"/>
			<path class="st2" d="M-17.8,21l-0.3,0.5l0.5-0.2c0,0,0.2-0.1,0.5-0.1c0.6-0.1,1.5,0.2,1.7,1c0.1,0.5,0.1,1.8-2.9,3.4l-0.1,0
				l0,0.1c0,0,0,0,0,0l-1.1,0.7l1.3-0.3c3.5-0.9,4.5-2.5,4.4-3.8c-0.1-1.1-1.1-1.8-2.4-1.8c-0.4,0-0.7,0.1-1.1,0.2
				C-17.7,20.7-17.8,21-17.8,21z"/>
			<path class="st2" d="M-24,21l0.6,0.6l-0.3-0.8c-0.2-0.5-0.6-1-0.9-1.5c-1.2-1.7-2.3-3.3,0.9-5.9c2.2-1.7,3.3-3.4,3.4-5
				c0.1-1.4-0.7-2.3-0.8-2.3l-0.5-0.5l0.2,0.6c0.7,2.8-1.2,4.3-3.2,5.9c-1,0.8-2,1.5-2.6,2.5C-28.5,16.6-26.4,18.8-24,21z"/>
			<path class="st2" d="M-14.2,30.3c0,0-0.4,0.8-3.8,1.4c-2,0.4-4.3,0.6-6.7,0.6c-2,0-3.9-0.1-5.4-0.4l-0.6-0.1l0.5,0.4
				c0.1,0.1,0.7,0.6,3.9,0.7c0.9,0.1,1.8,0.1,2.7,0.1l0,0c2.3,0,9.6-0.2,9.8-2.7l0.1-0.9L-14.2,30.3z"/>
		</g>
	</g>
</g>
<g>
	<g>
		<path class="st1" d="M14.9,13c0.3-0.3,0.3-0.7,0.2-1c-0.2-0.3-0.5-0.3-0.7,0c-0.3,0.3-0.3,0.7-0.2,1C14.3,13.3,14.6,13.2,14.9,13z
			"/>
		<path class="st1" d="M26.5,8c1.9-0.3,1.7-2.3-0.4-1.8c-0.9,0.2-1.3,0.8-1.7,0.8c0.4-0.8,1.1-1.5,1.8-2.4s-0.7-2-1.8-1.1
			c-1.2,0.9-1,1.4-1.6,2.6c-0.2,0.7-0.5,0.7-0.8,0.1c-0.3-0.6-0.5-1.3-1-1.7c-0.8-0.7-1.8-0.2-1.3,0.6s0.7,1.6,0.9,3
			c0.3,2-0.5,4.2-1.6,5.2c-2-4-4.5-7-6.3-7.9c-0.5-0.3-0.7-0.1-0.7,0.2c0.3,3.9,0.5,6.7,0.2,8.7c-0.1,0.9-2.2,4.2-2.1,5
			c0.1,0.8,0.7,2,1.2,2.6c-0.2-0.1-0.6,0.2-0.5,0.6c-0.8,0.4-0.7,1.1,0.1,1.3c0.2,0.5,0.2,0.8,0.8,1c-0.1,1.1-0.2,2.3-0.3,3.5
			c0.5,2.5,4.4-1.8,4.8-2.2c2.7-2,3.1,2.3,5,3c3.1,1.1,2.1-5.5-0.4-12c-0.3-4.2,1.1-5.4,2.4-5.9c0.7-0.2,1.2-0.3,2.2,0
			c1.7,0.5,2-1.4,0.5-1.6c-0.6-0.1-1-0.1-1.5-0.3C24.8,8.1,25.6,8.1,26.5,8z M13.8,11.8c0.5-1.1,1.7-1.7,2.6-1.4
			c0.9,0.3,1.2,1.4,0.6,2.5s-1.7,1.7-2.6,1.4C13.5,14,13.2,12.9,13.8,11.8z M11.6,21.7L11.6,21.7C11.6,21.7,11.6,21.7,11.6,21.7
			L11.6,21.7z M12.3,20.3c-0.2-0.5-0.5-0.6-0.6-1.1c0.3-0.3,0.5-1,0.8-1.5C12.4,18.6,12.4,19.3,12.3,20.3z M21.2,24.5
			c0.1,1.8-1.3-0.1-1.5-0.5c-3-5.5-7,5.8-6.2-1.3c0.4-2.9,0.6-3.3,0.7-6.7c0,0,2.3,1.2,3.8-1.7C19.5,17.2,20.9,20.6,21.2,24.5z"/>
	</g>
	<g>
		<path class="st2" d="M13.9,13c0.3-0.3,0.3-0.7,0.2-1c-0.2-0.3-0.5-0.3-0.7,0c-0.3,0.3-0.3,0.7-0.2,1C13.3,13.3,13.6,13.2,13.9,13z
			"/>
		<path class="st2" d="M25.5,8c1.9-0.3,1.7-2.3-0.4-1.8c-0.9,0.2-1.3,0.8-1.7,0.8c0.4-0.8,1.1-1.5,1.8-2.4s-0.7-2-1.8-1.1
			c-1.2,0.9-1,1.4-1.6,2.6c-0.2,0.7-0.5,0.7-0.8,0.1c-0.3-0.6-0.5-1.3-1-1.7c-0.8-0.7-1.8-0.2-1.3,0.6s0.7,1.6,0.9,3
			c0.3,2-0.5,4.2-1.6,5.2c-2-4-4.5-7-6.3-7.9c-0.5-0.3-0.7-0.1-0.7,0.2c0.3,3.9,0.5,6.7,0.2,8.7c-0.1,0.9-2.2,4.2-2.1,5
			c0.1,0.8,0.7,2,1.2,2.6c-0.2-0.1-0.6,0.2-0.5,0.6c-0.8,0.4-0.7,1.1,0.1,1.3c0.2,0.5,0.2,0.8,0.8,1c-0.1,1.1-0.2,2.3-0.3,3.5
			c0.5,2.5,4.4-1.8,4.8-2.2c2.7-2,3.1,2.3,5,3c3.1,1.1,2.1-5.5-0.4-12c-0.3-4.2,1.1-5.4,2.4-5.9c0.7-0.2,1.2-0.3,2.2,0
			c1.7,0.5,2-1.4,0.5-1.6c-0.6-0.1-1-0.1-1.5-0.3C23.8,8.1,24.6,8.1,25.5,8z M12.8,11.8c0.5-1.1,1.7-1.7,2.6-1.4
			c0.9,0.3,1.2,1.4,0.6,2.5c-0.5,1.1-1.7,1.7-2.6,1.4C12.5,14,12.2,12.9,12.8,11.8z M10.6,21.7L10.6,21.7
			C10.6,21.7,10.6,21.7,10.6,21.7L10.6,21.7z M11.3,20.3c-0.2-0.5-0.5-0.6-0.6-1.1c0.3-0.3,0.5-1,0.8-1.5
			C11.4,18.6,11.4,19.3,11.3,20.3z M20.2,24.5c0.1,1.8-1.3-0.1-1.5-0.5c-3-5.5-7,5.8-6.2-1.3c0.4-2.9,0.6-3.3,0.7-6.7
			c0,0,2.3,1.2,3.8-1.7C18.5,17.2,19.9,20.6,20.2,24.5z"/>
	</g>
</g>
</svg>
