<svg xmlns="http://www.w3.org/2000/svg" width="59.83" height="30.18" viewBox="0 0 59.83 30.18"><title>idea</title><g opacity="0.54"><polygon points="41.35 16.09 26.01 20.02 18.25 13.99 33.59 10.06 41.35 16.09" fill="none" stroke="#fff" stroke-miterlimit="10" stroke-width="0.5"/><polyline points="13.28 2.13 5.88 4.05 0.42 13.58 7.83 14.01 13.47 18.39 18.91 17.02 14.44 13.63 16.31 11.83 23.57 9.97" fill="none" stroke="#fff" stroke-miterlimit="10" stroke-width="0.5"/><polyline points="13.23 2.14 20.68 0.25 41.91 2.94 39.01 6.02 44.68 10.39 39.28 11.79 34.95 8.37 30.52 8.19 23.26 10.05" fill="none" stroke="#fff" stroke-miterlimit="10" stroke-width="0.5"/><polyline points="46.55 28.05 53.95 26.13 59.41 16.59 52 16.17 46.36 11.78 40.93 13.16 45.39 16.55 43.52 18.35 36.26 20.21" fill="none" stroke="#fff" stroke-miterlimit="10" stroke-width="0.5"/><polyline points="46.6 28.04 39.15 29.92 17.92 27.23 20.82 24.16 15.15 19.79 20.55 18.38 24.88 21.81 29.31 21.99 36.57 20.13" fill="none" stroke="#fff" stroke-miterlimit="10" stroke-width="0.5"/></g><polygon points="41.19 14.27 25.85 18.2 18.09 12.17 33.43 8.24 41.19 14.27" fill="#c9730d"/><polygon points="41.19 13.27 25.85 17.19 18.09 11.17 33.43 7.24 41.19 13.27" fill="#f29110"/><polygon points="18.09 11.17 18.09 12.17 19.13 12.08 19.11 11.23 18.09 11.17" fill="#c9730d"/><polyline points="41.19 13.27 41.19 14.27 40.05 13.56" fill="#c9730d"/><path d="M22.59,11l.06.06-1.25.33.43.42,1-.27.06.06-1,.27.44.43,1.25-.33.06.06-1.42.37-1.06-1Z" fill="#f7f7f7"/><path d="M22.82,10.91l.14,0H23l1.69.65.13.06a.23.23,0,0,1,0-.08l-.07-1.08v0l0,0,.13,0,.08,1.3-.15,0Z" fill="#f7f7f7"/><path d="M26,10.07l.27-.05h.26a.91.91,0,0,1,.23,0,.44.44,0,0,1,.17.1.17.17,0,0,1,.06.1.14.14,0,0,1,0,.1.35.35,0,0,1-.1.09l-.15.08a1.52,1.52,0,0,1,.49,0,.55.55,0,0,1,.3.13.18.18,0,0,1,.06.13.21.21,0,0,1-.06.14.64.64,0,0,1-.18.13,1.41,1.41,0,0,1-.28.1,2,2,0,0,1-.36.06h-.29l-.22-.05L26,11.08l.05,0h.14l.06,0,.09,0,.12,0h.32l.21,0A1,1,0,0,0,27.2,11a.43.43,0,0,0,.13-.11.15.15,0,0,0,0-.11.15.15,0,0,0,0-.09.39.39,0,0,0-.12-.08.61.61,0,0,0-.19,0h-.26l-.34.07-.05-.05.25-.09a.54.54,0,0,0,.15-.1.12.12,0,0,0,0-.2.37.37,0,0,0-.14-.08l-.18,0h-.2l-.21,0-.19.07-.12.08a.19.19,0,0,0-.06.1.16.16,0,0,0,0,.1s0,0,0,0h0l-.09,0a.21.21,0,0,1,0-.14.23.23,0,0,1,.07-.13.59.59,0,0,1,.17-.11Z" fill="#f7f7f7"/><path d="M29.78,9.75a.43.43,0,0,1,.14.24.3.3,0,0,1-.06.22.74.74,0,0,1-.25.2,2,2,0,0,1-.42.16l-.86.23-1.06-1,.86-.23a2.79,2.79,0,0,1,.5-.08,2.26,2.26,0,0,1,.46,0,1.57,1.57,0,0,1,.4.1A.94.94,0,0,1,29.78,9.75Zm-.18,0a.87.87,0,0,0-.27-.18A1.34,1.34,0,0,0,29,9.52a1.84,1.84,0,0,0-.39,0,2.33,2.33,0,0,0-.42.07l-.69.18.94.92.69-.18a1.66,1.66,0,0,0,.36-.13.59.59,0,0,0,.21-.17.25.25,0,0,0,0-.2A.41.41,0,0,0,29.6,9.79Z" fill="#f7f7f7"/><path d="M30.65,9.24l.28,0h.27a.94.94,0,0,1,.24.06.6.6,0,0,1,.19.12s0,0,0,0h0l-1.2.32h0a.7.7,0,0,0,.19.13.88.88,0,0,0,.23.07,1.11,1.11,0,0,0,.26,0l.28,0,.21-.07.13-.07.07-.05,0,0h.11l-.06.07-.11.07-.15.07-.18.06a1.77,1.77,0,0,1-.34.06,1.46,1.46,0,0,1-.32,0,1.08,1.08,0,0,1-.28-.08.77.77,0,0,1-.22-.15.32.32,0,0,1-.1-.16.2.2,0,0,1,0-.15.45.45,0,0,1,.16-.14A1.22,1.22,0,0,1,30.65,9.24Zm.06.05-.21.08a.38.38,0,0,0-.12.1.17.17,0,0,0,0,.11.22.22,0,0,0,0,.12l1.1-.29a.48.48,0,0,0-.14-.1l-.18-.05h-.21Z" fill="#f7f7f7"/><path d="M33.08,9.54l-.14,0L31.49,9l.13,0h.08l1.14.43.06,0,0,0v0a.13.13,0,0,1,0,0l0-.72v0h0l.12,0Z" fill="#f7f7f7"/><path d="M26.07,12.26l1.09,1.07-.16,0L25.91,12.3Z" fill="#f7f7f7"/><path d="M28.82,12.9a.11.11,0,0,1-.08,0l-.12-.09-.08.09-.1.08L28.3,13l-.18.06-.18,0h-.18l-.16,0a.33.33,0,0,1-.13-.08.09.09,0,0,1,0-.1.28.28,0,0,1,.12-.12,1.63,1.63,0,0,1,.28-.13l.46-.15-.08-.08a.49.49,0,0,0-.26-.13.81.81,0,0,0-.35,0l-.19.07-.11.07-.06.06,0,0H27.1a.66.66,0,0,1,.19-.16,1.19,1.19,0,0,1,.3-.11l.25,0h.22l.19.06a.55.55,0,0,1,.15.1l.49.48Zm-.71.14.17-.06.12-.07.09-.07.07-.08-.19-.19-.39.12-.25.11a.27.27,0,0,0-.11.1.07.07,0,0,0,0,.08l.09.06.12,0H28Z" fill="#f7f7f7"/><path d="M29.38,12.75,28.64,12l.09,0h.07l.13.11a.5.5,0,0,1,.16-.17.94.94,0,0,1,.3-.13l.26,0h.23l.19.06a.56.56,0,0,1,.15.11l.48.47-.16,0L30.06,12a.51.51,0,0,0-.27-.13.9.9,0,0,0-.39,0,.81.81,0,0,0-.27.12.45.45,0,0,0-.15.17l.56.55Z" fill="#f7f7f7"/><path d="M31,11.39l.21,0h.2l.43-.11,0,0s0,0,0,0l-.24.07.14,0,.1.07a.14.14,0,0,1,0,.21.47.47,0,0,1-.14.1l-.22.08-.28,0a.19.19,0,0,0-.07.07,0,0,0,0,0,0,.06.15.15,0,0,0,.1,0h.16l.2,0L31.8,12l.23,0,.21,0h.18a.26.26,0,0,1,.13.07.11.11,0,0,1,0,.1.21.21,0,0,1-.07.11.78.78,0,0,1-.18.11l-.29.1-.32.06-.27,0-.2,0a.28.28,0,0,1-.12-.06.09.09,0,0,1,0-.12.44.44,0,0,1,.17-.13h-.17a.2.2,0,0,1-.12-.05l0,0a.07.07,0,0,1,0,0l0,0,.06,0a1,1,0,0,1-.27,0,.42.42,0,0,1-.19-.1.16.16,0,0,1-.06-.11.15.15,0,0,1,0-.11.47.47,0,0,1,.14-.1Zm1.43.63a.18.18,0,0,0-.1,0h-.14L32,12l-.19,0-.2,0-.19,0-.09.06-.06.06a.09.09,0,0,0,0,.06.08.08,0,0,0,0,.05.22.22,0,0,0,.1.05l.16,0h.21l.26-.05.22-.07.16-.09a.19.19,0,0,0,.07-.09A.08.08,0,0,0,32.42,12Zm-1-.21.18-.06a.32.32,0,0,0,.1-.07.11.11,0,0,0,0-.08.14.14,0,0,0,0-.08l-.11-.07-.15,0h-.18l-.2,0-.18.06a.32.32,0,0,0-.1.07.11.11,0,0,0,0,.08.14.14,0,0,0,0,.08l.11.07.15,0h.18Z" fill="#f7f7f7"/><path d="M29.08,14.63a.37.37,0,0,1,.11.17.19.19,0,0,1,0,.15.4.4,0,0,1-.15.13,1.27,1.27,0,0,1-.27.1l-.16,0-.18,0,0,0,0,0a0,0,0,0,1,0,0h.19l.09,0,.21-.08a.3.3,0,0,0,.12-.1.14.14,0,0,0,0-.12.34.34,0,0,0-.1-.14L28.2,14l.17,0Z" fill="#f7f7f7"/><path d="M31.12,14.53a.11.11,0,0,1-.08,0l-.12-.09-.08.09-.1.08-.13.07-.18.06-.18,0h-.18l-.16,0a.33.33,0,0,1-.13-.08.09.09,0,0,1,0-.1.28.28,0,0,1,.12-.12,1.63,1.63,0,0,1,.28-.13l.46-.15-.08-.08a.49.49,0,0,0-.26-.13.81.81,0,0,0-.35,0l-.19.07-.11.07-.06.06,0,0h-.11A.66.66,0,0,1,29.6,14a1.19,1.19,0,0,1,.3-.11l.25,0h.22l.19.06a.55.55,0,0,1,.15.1l.49.48Zm-.71.14.17-.06.12-.07.09-.07.07-.08-.19-.19-.39.12-.25.11a.27.27,0,0,0-.11.1.07.07,0,0,0,0,.08l.09.06.12,0h.13Z" fill="#f7f7f7"/><path d="M32.26,14.24l-.14,0-1.45-.55.13,0h.08l1.14.43.06,0,0,0v0a.13.13,0,0,1,0,0l0-.72v0h0l.12,0Z" fill="#f7f7f7"/><path d="M34.35,13.69a.11.11,0,0,1-.08,0l-.12-.09-.08.09-.1.08-.13.07-.18.06-.18,0h-.18l-.16,0a.33.33,0,0,1-.13-.08.09.09,0,0,1,0-.1.28.28,0,0,1,.12-.12,1.63,1.63,0,0,1,.28-.13l.46-.15-.08-.08a.49.49,0,0,0-.26-.13.81.81,0,0,0-.35,0L33,13.2l-.11.07-.06.06,0,0h-.11a.66.66,0,0,1,.19-.16,1.19,1.19,0,0,1,.3-.11l.25,0h.22l.19.06a.55.55,0,0,1,.15.1l.49.48Zm-.71.14.17-.06.12-.07.09-.07.07-.08-.19-.19-.39.12-.25.11a.27.27,0,0,0-.11.1.07.07,0,0,0,0,.08l.09.06.12,0h.13Z" fill="#f7f7f7"/></svg>