<?xml version="1.0" encoding="utf-8"?>
<!-- Generator: Adobe Illustrator 20.0.0, SVG Export Plug-In . SVG Version: 6.00 Build 0)  -->
<svg version="1.1" id="Capa_1" xmlns="http://www.w3.org/2000/svg" xmlns:xlink="http://www.w3.org/1999/xlink" x="0px" y="0px"
	 viewBox="0 0 50 104" style="enable-background:new 0 0 50 104;" xml:space="preserve">
<style type="text/css">
	.st0{fill:#FFFFFF;}
	.st1{fill:#A6AFB6;}
</style>
<title>twitter</title>
<path class="st0" d="M45,0H5C2.2,0,0,2.2,0,5v40c0,2.8,2.2,5,5,5h40c2.8,0,5-2.2,5-5V5C50,2.2,47.8,0,45,0z M39.2,18.2
	c-0.2,11.5-7.5,19.5-18.5,20c-4.5,0.2-7.8-1.2-10.8-3c3.5,0.4,7-0.6,9.8-2.8c-2.9-0.1-5.4-2-6.2-4.8c0.9,0.1,1.8,0.1,2.8,0
	c-3-1-5-2.8-5.2-6.8c0.8,0.5,1.8,0.8,2.8,0.8c-2.2-1.2-3.8-6-2-9c3.2,3.5,7.2,6.5,13.8,7c-1.8-7,7.8-10.8,11.5-6
	c1.5-0.3,2.9-0.8,4.2-1.5c-0.5,1.5-1.4,2.8-2.8,3.8c1.2-0.2,2.4-0.5,3.5-1C41.8,16.2,40.5,17.2,39.2,18.2z"/>
<path class="st1" d="M45,54H5c-2.8,0-5,2.2-5,5v40c0,2.8,2.2,5,5,5h40c2.8,0,5-2.2,5-5V59C50,56.2,47.8,54,45,54z M39.2,72.2
	c-0.2,11.5-7.5,19.5-18.5,20c-4.5,0.2-7.8-1.2-10.8-3c3.5,0.4,7-0.6,9.8-2.8c-2.9-0.1-5.4-2-6.2-4.8c0.9,0.1,1.8,0.1,2.8,0
	c-3-1-5-2.8-5.2-6.8c0.8,0.5,1.8,0.8,2.8,0.8c-2.2-1.2-3.8-6-2-9c3.2,3.5,7.2,6.5,13.8,7c-1.8-7,7.8-10.8,11.5-6
	c1.5-0.3,2.9-0.8,4.2-1.5c-0.5,1.5-1.4,2.8-2.8,3.8c1.2-0.2,2.4-0.5,3.5-1C41.8,70.2,40.5,71.2,39.2,72.2z"/>
</svg>
